<svg id="Layer_1" data-name="Layer 1" xmlns="http://www.w3.org/2000/svg" viewBox="0 0 259.83 89"><defs><style>.cls-1{fill:#fff;}</style></defs><path class="cls-1" d="M210.5,260.5l-38,22v44.63l39,22.37L250,326.79V282.5Zm0,9,25,15-6.28,4L210.5,277l-19,11.47-6-3Zm16.77,26.68v13.18l-12.38-7.68V288.5Zm-19.77-7V301.8l-13,7.56V295.5Zm0,48.73-27-16.41v-30l7,5v22l20,11Zm3.5-15.82-12.5-6.59,12.15-6.14,12.84,6.14Zm29.57-.8-25.68,16.62v-9.17L234.5,317.5V296.75l6.07-5.27Z" transform="translate(-172.5 -260.5)"/><path class="cls-1" d="M301.84,319.92a13.17,13.17,0,0,1-5.54-1.18,10.51,10.51,0,0,1-4.18-3.43l3.35-4a9.35,9.35,0,0,0,2.87,2.71,6.78,6.78,0,0,0,3.45.9c3.26,0,4.88-1.94,4.88-5.82V292.8H295.42v-5H312.5v21c0,3.74-.9,6.52-2.71,8.36S305.33,319.92,301.84,319.92Z" transform="translate(-172.5 -260.5)"/><path class="cls-1" d="M327.5,319.78a11.26,11.26,0,0,1-4.74-.93,7.25,7.25,0,0,1-3.14-2.57,6.52,6.52,0,0,1-1.11-3.73,7,7,0,0,1,1-3.66,6.63,6.63,0,0,1,3.19-2.58,15.16,15.16,0,0,1,5.87-.94h7v3.75H329c-1.9,0-3.19.3-3.87.92a3.05,3.05,0,0,0-1,2.33,2.81,2.81,0,0,0,1.22,2.39,5.53,5.53,0,0,0,3.39.91,7.35,7.35,0,0,0,3.72-.95,5.6,5.6,0,0,0,2.42-2.8l.91,3.39a6.32,6.32,0,0,1-2.9,3.29A10.65,10.65,0,0,1,327.5,319.78Zm7.59-.32v-4.92l-.27-1V305a5,5,0,0,0-1.51-3.86,6.63,6.63,0,0,0-4.59-1.38,12.44,12.44,0,0,0-3.93.64,10.41,10.41,0,0,0-3.34,1.76l-2.22-4.11a14.14,14.14,0,0,1,4.66-2.26,19.65,19.65,0,0,1,5.56-.77q5.28,0,8.13,2.53c1.9,1.69,2.84,4.28,2.84,7.77v14.14Z" transform="translate(-172.5 -260.5)"/><path class="cls-1" d="M347.7,319.46V285.94h5.6v33.52Zm4.56-5.37.14-7.1L365,295.33h6.78L361.07,306l-3,2.53Zm13.65,5.37L357,308.57l3.57-4.51,12.15,15.4Z" transform="translate(-172.5 -260.5)"/><path class="cls-1" d="M386.15,319.78a12.11,12.11,0,0,1-5.42-1.15,8.36,8.36,0,0,1-3.68-3.53,12.05,12.05,0,0,1-1.34-6V295.33h5.7v13.06a6.84,6.84,0,0,0,1.49,4.82,5.42,5.42,0,0,0,4.15,1.6,7.16,7.16,0,0,0,3.48-.81,5.57,5.57,0,0,0,2.31-2.44,9,9,0,0,0,.81-4v-12.2h5.65v24.13h-5.38v-6.55l.95,2a8.42,8.42,0,0,1-3.57,3.57A10.62,10.62,0,0,1,386.15,319.78Z" transform="translate(-172.5 -260.5)"/><path class="cls-1" d="M406.75,319.46V285.94h5.61v15l-.45,6.41.22,6.42v5.69Zm13.33.32a11.26,11.26,0,0,1-5.46-1.33,8.92,8.92,0,0,1-3.78-4.09,16,16,0,0,1-1.33-7,15.31,15.31,0,0,1,1.4-7,9.39,9.39,0,0,1,3.8-4.07,10.83,10.83,0,0,1,5.37-1.33,12.7,12.7,0,0,1,6.28,1.53,11.36,11.36,0,0,1,4.36,4.34,14,14,0,0,1,0,13,11.28,11.28,0,0,1-4.36,4.31A12.6,12.6,0,0,1,420.08,319.78Zm-.67-4.79a7.21,7.21,0,0,0,3.68-.93,6.61,6.61,0,0,0,2.55-2.66,8.24,8.24,0,0,0,.95-4,8.08,8.08,0,0,0-.95-4,6.76,6.76,0,0,0-2.55-2.62,7.63,7.63,0,0,0-7.3,0,6.74,6.74,0,0,0-2.57,2.62,8,8,0,0,0-1,4,8.13,8.13,0,0,0,1,4,6.59,6.59,0,0,0,2.57,2.66A7.17,7.17,0,0,0,419.41,315Z" transform="translate(-172.5 -260.5)"/></svg>