<svg width="42" height="47" viewBox="0 0 42 47" fill="none" xmlns="http://www.w3.org/2000/svg">
<path d="M40 13.414L20.9515 2L2 13.414M40 13.414V34.1868L21.6953 45M40 13.414C38.5662 13.962 35.0131 15.6272 32.2706 17.9037M21.6953 45L2 34.1868V13.414M21.6953 45V35.5463M2 13.414C4.11291 14.4574 8.74621 16.816 10.3762 17.9037M20.9515 11.5485L32.2706 17.9037M20.9515 11.5485L10.3762 17.9037M20.9515 11.5485V23.8794M32.2706 17.9037V29.0963M32.2706 29.0963L21.6953 35.5463M32.2706 29.0963L20.9515 23.8794M21.6953 35.5463L10.3762 29.0963M10.3762 29.0963V17.9037M10.3762 29.0963L20.9515 23.8794" stroke="#FFFBE4" stroke-width="3"/>
</svg>
